# This file uses centimeters as units for non-parametric coordinates.

mtllib Bol.mtl
g default
v 0.712581 0.518919 -1.692741
v 0.593142 0.518919 -1.692741
v 0.533423 0.518919 -1.589303
v 0.593142 0.518919 -1.485866
v 0.712581 0.518919 -1.485866
v 0.772301 0.518919 -1.589303
v 0.652862 0.518919 -1.589303
v 0.652862 0.525599 -1.589303
v 0.764569 0.700713 -1.782786
v 0.694067 0.525599 -1.660673
v 0.541154 0.700713 -1.782786
v 0.611656 0.525599 -1.660673
v 0.429447 0.700713 -1.589303
v 0.570451 0.525599 -1.589303
v 0.541154 0.700713 -1.395820
v 0.611656 0.525599 -1.517933
v 0.764569 0.700713 -1.395820
v 0.694067 0.525599 -1.517933
v 0.876276 0.700713 -1.589303
v 0.735272 0.525599 -1.589303
vt 0.537154 0.694151
vt 0.442356 0.693785
vt 0.394641 0.775700
vt 0.441723 0.857980
vt 0.536521 0.858346
vt 0.584236 0.776431
vt 0.489438 0.776066
vt 0.821106 0.033138
vt 0.951294 0.127965
vt 0.933252 0.184178
vt 0.048706 0.133320
vt 0.067413 0.189316
vt 0.161672 0.335313
vt 0.205004 0.375411
vt 0.357860 0.458082
vt 0.415136 0.472398
vt 0.588914 0.471367
vt 0.646016 0.456373
vt 0.797881 0.371892
vt 0.840734 0.331283
vt 0.327406 0.026227
vt 0.354518 0.107383
vt 0.177759 0.036955
vt 0.417320 0.165496
vt 0.228474 0.188758
vt 0.500330 0.186244
vt 0.345946 0.297462
vt 0.583088 0.164513
vt 0.501220 0.336272
vt 0.645196 0.105658
vt 0.656023 0.295622
vt 0.671343 0.024187
vt 0.772196 0.185532
vt 0.119662 0.579244
vt 0.086723 0.522733
vt 0.119194 0.465952
vt 0.184603 0.465682
vt 0.217541 0.522193
vt 0.185070 0.578974
vt 0.152132 0.522463
vn 0.000000 -1.000000 -0.000000
vn 0.000000 -1.000000 -0.000000
vn 0.000000 -1.000000 -0.000000
vn 0.000000 -1.000000 0.000000
vn 0.000000 -1.000000 0.000000
vn 0.000000 -1.000000 0.000000
vn 0.000000 -1.000000 0.000000
vn -0.710364 0.571995 0.410128
vn -0.710364 0.571995 0.410128
vn -0.710364 0.571995 0.410128
vn -0.710364 0.571995 0.410128
vn -0.000000 0.571995 0.820257
vn -0.000000 0.571995 0.820257
vn -0.000000 0.571995 0.820257
vn -0.000000 0.571995 0.820257
vn 0.710364 0.571995 0.410127
vn 0.710364 0.571995 0.410127
vn 0.710364 0.571995 0.410127
vn 0.710364 0.571995 0.410127
vn 0.710364 0.571995 -0.410128
vn 0.710364 0.571995 -0.410128
vn 0.710364 0.571995 -0.410128
vn 0.710364 0.571995 -0.410128
vn 0.000000 0.571995 -0.820257
vn 0.000000 0.571995 -0.820257
vn 0.000000 0.571995 -0.820257
vn 0.000000 0.571995 -0.820257
vn -0.710365 0.571995 -0.410126
vn -0.710365 0.571995 -0.410126
vn -0.710365 0.571995 -0.410126
vn -0.710365 0.571995 -0.410126
vn 0.000000 -0.443854 -0.896099
vn 0.000000 -0.443854 -0.896099
vn 0.000000 -0.443854 -0.896099
vn 0.000000 -0.443854 -0.896099
vn -0.776047 -0.443853 -0.448047
vn -0.776047 -0.443853 -0.448047
vn -0.776047 -0.443853 -0.448047
vn -0.776047 -0.443853 -0.448047
vn -0.776045 -0.443854 0.448049
vn -0.776045 -0.443854 0.448049
vn -0.776045 -0.443854 0.448049
vn -0.776045 -0.443854 0.448049
vn 0.000000 -0.443854 0.896099
vn 0.000000 -0.443854 0.896099
vn 0.000000 -0.443854 0.896099
vn 0.000000 -0.443854 0.896099
vn 0.776045 -0.443855 0.448048
vn 0.776045 -0.443855 0.448048
vn 0.776045 -0.443855 0.448048
vn 0.776045 -0.443855 0.448048
vn 0.776046 -0.443853 -0.448048
vn 0.776046 -0.443853 -0.448048
vn 0.776046 -0.443853 -0.448048
vn 0.776046 -0.443853 -0.448048
vn 0.000000 1.000000 -0.000000
vn 0.000000 1.000000 0.000000
vn 0.000000 1.000000 -0.000000
vn 0.000000 1.000000 -0.000000
vn 0.000000 1.000000 -0.000000
vn 0.000000 1.000000 -0.000000
vn 0.000000 1.000000 0.000000
s 1
g pCylinder4
usemtl initialShadingGroup
f 2/2/1 1/1/2 7/7/3
f 3/3/4 2/2/1 7/7/3
f 4/4/5 3/3/4 7/7/3
f 5/5/6 4/4/5 7/7/3
f 6/6/7 5/5/6 7/7/3
f 1/1/2 6/6/7 7/7/3
s off
f 9/8/8 10/9/9 20/10/10 19/33/11
f 10/11/12 9/23/13 11/25/14 12/12/15
f 12/13/16 11/25/17 13/27/18 14/14/19
f 14/15/20 13/27/21 15/29/22 16/16/23
f 16/17/24 15/29/25 17/31/26 18/18/27
f 18/19/28 17/31/29 19/33/30 20/20/31
f 1/21/32 2/22/33 11/25/34 9/23/35
f 2/22/36 3/24/37 13/27/38 11/25/39
f 3/24/40 4/26/41 15/29/42 13/27/43
f 4/26/44 5/28/45 17/31/46 15/29/47
f 5/28/48 6/30/49 19/33/50 17/31/51
f 6/30/52 1/32/53 9/8/54 19/33/55
s 2
f 10/39/56 12/34/57 8/40/58
f 12/34/57 14/35/59 8/40/58
f 14/35/59 16/36/60 8/40/58
f 16/36/60 18/37/61 8/40/58
f 18/37/61 20/38/62 8/40/58
f 20/38/62 10/39/56 8/40/58
