# This file uses centimeters as units for non-parametric coordinates.

mtllib Cojin.mtl
g default
v 1.297500 1.069563 -4.024842
v 1.257338 1.036564 -4.053504
v 1.229311 1.071344 -4.111010
v 1.292239 1.113823 -4.046293
v 1.221990 1.159558 -3.452732
v 1.189992 1.137515 -3.441611
v 1.187630 1.126590 -3.394901
v 1.212131 1.149004 -3.419371
v 1.345329 1.093578 -3.402224
v 1.287800 1.041835 -3.328358
v 1.299018 1.006226 -3.414365
v 1.340207 1.046532 -3.445262
v 1.304106 0.997390 -3.506274
v 1.348958 1.056769 -3.503536
v 0.932018 0.712822 -3.505211
v 0.952131 0.727752 -3.432613
v 0.908385 0.734597 -3.379874
v 0.853661 0.700550 -3.479832
v 1.369052 1.123697 -3.483284
v 0.965069 0.797204 -4.055924
v 0.935024 0.830569 -4.112817
v 0.886280 0.891228 -3.445018
v 0.897165 0.888987 -3.393456
v 0.971721 0.782896 -3.313140
v 0.997228 0.758983 -3.408865
v 1.001947 0.747968 -3.509641
v 1.325344 1.081016 -3.956046
v 1.345377 1.149035 -3.948022
v 1.180299 1.171884 -3.932838
v 1.156385 1.153714 -3.956526
v 1.166880 1.162410 -3.905389
v 1.199129 1.183301 -3.891252
v 0.863575 0.915416 -3.906049
v 0.869971 0.919415 -3.958176
v 0.931409 0.770219 -4.043708
v 0.913763 0.742790 -3.970201
v 0.840695 0.737283 -3.977168
v 0.889994 0.786459 -4.076180
v 1.280044 1.023457 -3.969252
v 0.977908 0.774590 -3.971328
v 0.835390 0.887518 -3.897135
v 0.850550 0.903209 -3.941632
v 0.855017 0.861416 -3.455355
v 0.871048 0.869812 -3.413456
v 1.269275 1.191469 -3.911867
v 1.226230 1.164224 -3.989811
v 1.292310 1.166488 -3.459909
v 1.271248 1.143983 -3.394772
v 1.227196 1.101038 -3.335500
v 0.921930 0.849027 -3.323710
v 0.869459 0.812328 -3.376830
v 0.826351 0.784300 -3.457371
v 0.811516 0.818578 -3.934161
v 0.850781 0.858767 -4.012974
v 0.888713 0.891519 -4.044810
v 1.178040 1.128683 -4.042948
v 1.093525 0.996490 -3.330085
v 1.161608 0.927927 -3.321976
v 1.183734 0.894180 -3.412424
v 1.190455 0.883056 -3.508259
v 1.163754 0.909520 -3.970700
v 1.141884 0.928167 -4.054992
v 1.106933 0.965462 -4.111989
v 1.046538 1.030631 -4.043445
v 1.021059 1.059932 -3.956681
v 1.024418 1.063491 -3.905085
v 1.049739 1.038899 -3.442456
v 1.053674 1.031389 -3.393687
v 1.060562 0.972514 -3.329006
v 1.127467 0.903305 -3.320571
v 1.151142 0.870666 -3.411943
v 1.157835 0.859319 -3.508625
v 1.131134 0.885839 -3.970943
v 1.110323 0.905398 -4.055266
v 1.075153 0.942561 -4.112205
v 1.015296 1.008071 -4.043664
v 0.990130 1.037647 -3.956881
v 0.991659 1.040005 -3.905192
v 1.016933 1.015485 -3.442824
v 1.022305 1.008791 -3.393592
vt 0.315776 0.076339
vt 0.350714 0.056490
vt 0.367609 0.088561
vt 0.325087 0.098731
vt 0.322930 0.451687
vt 0.343184 0.456877
vt 0.349579 0.480504
vt 0.330183 0.472581
vt 0.293460 0.566334
vt 0.342541 0.558088
vt 0.337416 0.603387
vt 0.304646 0.607431
vt 0.330468 0.650144
vt 0.292441 0.641754
vt 0.856617 0.214286
vt 0.891868 0.243823
vt 0.888336 0.284560
vt 0.839337 0.252869
vt 0.038104 0.240281
vt 0.065132 0.218625
vt 0.080857 0.252967
vt 0.042738 0.277020
vt 0.567264 0.056850
vt 0.551566 0.090500
vt 0.552297 0.461563
vt 0.545207 0.488297
vt 0.535638 0.569609
vt 0.537387 0.619603
vt 0.537210 0.671481
vt 0.270917 0.089710
vt 0.279457 0.125513
vt 0.340436 0.193330
vt 0.360298 0.184642
vt 0.349511 0.210238
vt 0.329221 0.216825
vt 0.560684 0.215997
vt 0.555372 0.188929
vt 0.593951 0.074632
vt 0.642288 0.086763
vt 0.628277 0.120786
vt 0.581357 0.096817
vt 0.307692 0.939894
vt 0.307980 0.893578
vt 0.515527 0.913155
vt 0.510119 0.959027
vt 0.270081 0.883082
vt 0.281579 0.921713
vt 0.566679 0.626841
vt 0.578126 0.670171
vt 0.553110 0.916234
vt 0.533441 0.954192
vt 0.581273 0.220771
vt 0.572012 0.195268
vt 0.575119 0.457994
vt 0.563974 0.483138
vt 0.581725 0.583623
vt 0.294357 0.172002
vt 0.333954 0.152624
vt 0.312503 0.205314
vt 0.096856 0.297378
vt 0.112286 0.330589
vt 0.069424 0.321170
vt 0.097630 0.343333
vt 0.347858 0.518030
vt 0.305335 0.508383
vt 0.538795 0.530173
vt 0.580709 0.526400
vt 0.824242 0.296929
vt 0.860061 0.327275
vt 0.826872 0.348163
vt 0.805929 0.334404
vt 0.615856 0.169365
vt 0.603075 0.208811
vt 0.575393 0.149865
vt 0.549114 0.140915
vt 0.368303 0.137890
vt 0.429462 0.518336
vt 0.422506 0.567828
vt 0.418845 0.616732
vt 0.414577 0.664261
vt 0.394328 0.902555
vt 0.441376 0.040973
vt 0.392622 0.948856
vt 0.445780 0.079776
vt 0.447804 0.140742
vt 0.446970 0.189788
vt 0.443435 0.216025
vt 0.433898 0.452918
vt 0.434719 0.477484
vt 0.449101 0.518470
vt 0.442259 0.568251
vt 0.439274 0.618041
vt 0.435875 0.666549
vt 0.415677 0.904920
vt 0.464767 0.041374
vt 0.413686 0.951273
vt 0.464844 0.080817
vt 0.466468 0.141773
vt 0.466710 0.190386
vt 0.465301 0.216625
vt 0.455590 0.453165
vt 0.454529 0.477871
vn 0.749350 -0.282617 -0.598834
vn 0.598441 -0.485337 -0.637430
vn 0.068853 0.236063 -0.969295
vn 0.359900 0.564041 -0.743189
vn -0.556633 0.827364 0.075031
vn -0.569052 0.818314 0.080887
vn -0.568553 0.806337 0.162999
vn -0.559247 0.818085 0.134088
vn 0.753217 0.059111 0.655111
vn 0.488107 -0.182640 0.853460
vn 0.694100 -0.615139 0.373937
vn 0.809133 -0.476721 0.343569
vn 0.764379 -0.641537 0.064455
vn 0.711077 -0.694627 0.108918
vn 0.732025 -0.679528 -0.048801
vn 0.792078 -0.607588 -0.058727
vn 0.116839 -0.992533 -0.035038
vn 0.170715 -0.964846 0.199820
vn -0.504601 -0.704351 0.499267
vn -0.655436 -0.754018 0.043131
vn 0.948113 -0.286412 0.138022
vn 0.960755 -0.274179 -0.042148
vn 0.846516 0.531214 0.034960
vn 0.796949 0.460800 0.390558
vn 0.502956 -0.574022 -0.646169
vn -0.038798 0.088304 -0.995338
vn -0.572957 0.815438 0.082346
vn -0.570248 0.804516 0.166043
vn 0.373056 -0.376684 0.847903
vn 0.618448 -0.683190 0.388296
vn 0.675767 -0.726902 0.122284
vn 0.682230 -0.729702 -0.045788
vn 0.958925 -0.255738 -0.122727
vn 0.904778 -0.165949 -0.392222
vn 0.629552 0.571763 -0.526072
vn 0.887434 0.444476 -0.122072
vn -0.572410 0.819961 0.003173
vn -0.569992 0.821408 -0.019974
vn -0.569482 0.819381 0.065620
vn -0.556961 0.827487 0.071137
vn -0.573219 0.816882 0.064223
vn -0.572703 0.819502 -0.020678
vn 0.048037 -0.919678 -0.389724
vn 0.099745 -0.987914 -0.118644
vn -0.594435 -0.789638 -0.152048
vn -0.664721 -0.497361 -0.557475
vn 0.678103 -0.672293 -0.296982
vn 0.726839 -0.677950 -0.109949
vn 0.677114 -0.726678 -0.115999
vn 0.640560 -0.703912 -0.306904
vn 0.792969 -0.602834 -0.088270
vn 0.759348 -0.597669 -0.257260
vn 0.548258 -0.835025 -0.046337
vn 0.564337 -0.817052 0.118110
vn 0.486947 -0.869106 0.086822
vn 0.449039 -0.891807 -0.055175
vn 0.546243 -0.830492 -0.109096
vn 0.446340 -0.890224 -0.091009
vn 0.549169 -0.781824 -0.295237
vn 0.472850 -0.844101 -0.252798
vn -0.505900 -0.157033 -0.848178
vn -0.169426 0.009656 -0.985496
vn 0.427526 -0.636078 -0.642360
vn 0.273232 -0.731596 -0.624589
vn -0.695128 0.715489 0.069798
vn -0.692942 0.718034 0.065255
vn -0.697698 0.716110 -0.020115
vn -0.680303 0.732927 -0.002412
vn -0.695306 0.714703 0.075818
vn -0.691663 0.717494 0.082498
vn -0.681187 0.711851 0.171031
vn -0.686806 0.710988 0.150974
vn 0.509817 -0.778442 0.366217
vn 0.188290 -0.486451 0.853178
vn -0.132329 -0.721298 0.679867
vn 0.351311 -0.870667 0.344266
vn 0.278467 0.960014 -0.028791
vn 0.171192 0.897849 -0.405660
vn -0.157417 0.960563 -0.229215
vn -0.103550 0.994369 0.022537
vn 0.253789 0.962547 0.095366
vn -0.090344 0.991842 0.089929
vn 0.355206 0.843002 0.403951
vn -0.054710 0.951663 0.302231
vn -0.175644 0.840644 0.512314
vn -0.394749 0.699938 0.595197
vn -0.074131 0.452664 0.888594
vn 0.280173 0.659623 0.697424
vn -0.459545 0.639318 0.616515
vn -0.255269 0.382421 0.888027
vn -0.673833 -0.086403 0.733814
vn -0.395500 0.224944 0.890494
vn -0.600801 0.550226 0.579905
vn -0.760416 0.387805 0.520937
vn -0.991895 -0.055495 0.114300
vn -0.845474 -0.174980 0.504536
vn -0.892811 0.289427 0.345137
vn -0.941925 0.321231 0.097915
vn -0.995486 -0.084229 -0.043735
vn -0.942508 0.333004 0.028044
vn -0.905178 0.040519 -0.423097
vn -0.893693 0.393097 -0.216305
vn -0.664897 0.645822 -0.375268
vn -0.584293 0.520881 -0.622321
vn -0.760527 0.348030 -0.548156
vn -0.760367 0.551115 -0.343677
vn -0.343149 0.708788 -0.616334
vn -0.473104 0.637313 -0.608280
vn -0.537591 0.749065 -0.387166
vn -0.476039 0.795726 -0.374443
vn -0.065975 0.853631 -0.516684
vn -0.297671 0.890776 -0.343381
vn 0.354733 -0.437830 0.826117
vn -0.286181 0.363865 0.886399
vn 0.561008 -0.736832 0.377291
vn 0.580485 -0.804416 0.126303
vn 0.584742 -0.810114 -0.042335
vn 0.582455 -0.804833 -0.113975
vn 0.563856 -0.767135 -0.305891
vn 0.463592 -0.604423 -0.647885
vn -0.048219 0.037285 -0.998141
vn -0.516997 0.598014 -0.612449
vn -0.616437 0.685133 -0.388069
vn -0.673377 0.736431 0.065059
vn -0.680168 0.732754 -0.021061
vn -0.671392 0.736349 0.083808
vn -0.662751 0.728650 0.172715
vn -0.524914 0.604947 0.598752
s 1
g polySurface1 group4_pasted__group2_pasted__pasted__pCube4
usemtl initialShadingGroup
f 1/1/1 2/2/2 3/3/3 4/4/4
s 2
f 5/5/5 6/6/6 7/7/7 8/8/8
s 3
f 9/9/9 10/10/10 11/11/11 12/12/12
s 4
f 12/12/13 11/11/14 13/13/15 14/14/16
s 5
f 15/15/17 16/16/18 17/17/19 18/18/20
s 6
f 12/19/21 14/20/22 19/21/23 9/22/24
s 1
f 2/2/2 62/82/25 63/84/26 3/3/3
s 2
f 7/7/7 6/6/6 67/88/27 68/89/28
s 3
f 11/11/11 10/10/10 58/78/29 59/79/30
s 4
f 13/13/15 11/11/14 59/79/31 60/80/32
s 6
f 27/30/33 1/1/34 4/4/35 28/31/36
s 2
f 29/32/37 30/33/38 31/34/39 32/35/40
f 66/87/41 31/34/39 30/33/38 65/86/42
s 5
f 35/38/43 36/39/44 37/40/45 38/41/46
s 4
f 2/42/47 39/43/48 61/81/49 62/83/50
f 27/46/51 39/43/48 2/42/47 1/47/52
s 6
f 14/20/22 27/30/33 28/31/36 19/21/23
s 2
f 32/35/40 31/34/39 6/6/6 5/5/5
f 67/88/27 6/6/6 31/34/39 66/87/41
s 5
f 36/39/44 15/15/17 18/18/20 37/40/45
s 4
f 39/43/48 13/13/15 60/80/32 61/81/49
f 14/14/16 13/13/15 39/43/48 27/46/51
f 26/29/53 25/28/54 16/48/55 15/49/56
f 40/44/57 26/29/53 15/49/56 36/50/58
f 20/45/59 40/44/57 36/50/58 35/51/60
s 1
f 38/41/61 21/24/62 20/23/63 35/38/64
s 2
f 41/52/65 33/36/66 34/37/67 42/53/68
f 43/54/69 22/25/70 33/36/66 41/52/65
f 23/26/71 22/25/70 43/54/69 44/55/72
s 3
f 25/28/73 24/27/74 17/56/75 16/48/76
s 6
f 45/57/77 46/58/78 29/32/79 32/59/80
f 47/60/81 45/57/77 32/59/80 5/61/82
f 48/62/83 47/60/81 5/61/82 8/63/84
s 3
f 8/8/85 7/7/86 49/64/87 48/65/88
f 68/89/89 57/77/90 49/64/87 7/7/86
f 51/67/91 50/66/92 23/26/93 44/55/94
s 5
f 52/68/95 51/69/96 44/70/97 43/71/98
f 53/72/99 52/68/95 43/71/98 41/73/100
f 54/74/101 53/72/99 41/73/100 42/53/102
s 1
f 34/37/103 55/75/104 54/74/105 42/53/106
f 56/76/107 64/85/108 65/86/109 30/33/110
f 46/58/111 56/76/107 30/33/110 29/32/112
f 3/3/3 63/84/26 64/85/108 56/76/107
f 4/4/4 3/3/3 56/76/107 46/58/111
s 6
f 28/31/36 4/4/35 46/58/78 45/57/77
f 19/21/23 28/31/36 45/57/77 47/60/81
f 9/22/24 19/21/23 47/60/81 48/62/83
s 3
f 48/65/88 49/64/87 10/10/10 9/9/9
f 58/78/29 10/10/10 49/64/87 57/77/90
f 17/56/75 24/27/74 50/66/92 51/67/91
s 5
f 18/18/20 17/17/19 51/69/96 52/68/95
f 37/40/45 18/18/20 52/68/95 53/72/99
f 38/41/46 37/40/45 53/72/99 54/74/101
s 1
f 55/75/104 21/24/62 38/41/61 54/74/105
s 3
f 70/91/113 58/78/29 57/77/90 69/90/114
f 59/79/30 58/78/29 70/91/113 71/92/115
s 4
f 60/80/32 59/79/31 71/92/116 72/93/117
f 61/81/49 60/80/32 72/93/117 73/94/118
f 62/83/50 61/81/49 73/94/118 74/96/119
s 1
f 63/84/26 62/82/25 74/95/120 75/97/121
f 64/85/108 63/84/26 75/97/121 76/98/122
f 65/86/109 64/85/108 76/98/122 77/99/123
s 2
f 78/100/124 66/87/41 65/86/42 77/99/125
f 79/101/126 67/88/27 66/87/41 78/100/124
f 68/89/28 67/88/27 79/101/126 80/102/127
s 3
f 80/102/128 69/90/114 57/77/90 68/89/89
f 24/27/74 70/91/113 69/90/114 50/66/92
f 71/92/115 70/91/113 24/27/74 25/28/73
s 4
f 72/93/117 71/92/116 25/28/54 26/29/53
f 73/94/118 72/93/117 26/29/53 40/44/57
f 74/96/119 73/94/118 40/44/57 20/45/59
s 1
f 75/97/121 74/95/120 20/23/63 21/24/62
f 76/98/122 75/97/121 21/24/62 55/75/104
f 77/99/123 76/98/122 55/75/104 34/37/103
s 2
f 33/36/66 78/100/124 77/99/125 34/37/67
f 22/25/70 79/101/126 78/100/124 33/36/66
f 80/102/127 79/101/126 22/25/70 23/26/71
s 3
f 50/66/92 69/90/114 80/102/128 23/26/93
