# This file uses centimeters as units for non-parametric coordinates.

mtllib Cojin.mtl
g default
v -0.967788 0.724734 -4.342638
v -1.005051 0.760975 -4.371299
v -0.973604 0.792697 -4.428806
v -0.924388 0.734887 -4.364089
v -0.886753 0.809788 -3.770528
v -0.912219 0.839135 -3.759407
v -0.923339 0.840266 -3.712697
v -0.898338 0.818412 -3.737167
v -0.938600 0.679874 -3.720020
v -0.996422 0.731288 -3.646154
v -1.030563 0.716178 -3.732160
v -0.985923 0.679730 -3.763058
v -1.038778 0.710138 -3.824070
v -0.974777 0.672172 -3.821332
v -1.362978 1.048254 -3.823006
v -1.345903 1.029927 -3.750409
v -1.343968 1.074163 -3.697670
v -1.383892 1.124759 -3.797628
v -0.906028 0.659649 -3.801080
v -1.275443 1.024797 -4.373720
v -1.245628 1.058368 -4.430613
v -1.190769 1.113558 -3.762813
v -1.191785 1.102491 -3.711252
v -1.288922 1.016594 -3.630936
v -1.309849 0.988585 -3.726660
v -1.320270 0.982670 -3.827437
v -0.953308 0.698337 -4.273842
v -0.883482 0.685996 -4.265818
v -0.879142 0.852592 -4.250633
v -0.899860 0.874336 -4.274322
v -0.890050 0.864873 -4.223185
v -0.865701 0.835149 -4.209048
v -1.169258 1.138813 -4.223845
v -1.164571 1.132902 -4.275972
v -1.306006 1.055245 -4.361504
v -1.335228 1.069730 -4.287997
v -1.348830 1.141732 -4.294964
v -1.294475 1.098210 -4.393976
v -1.015550 0.736952 -4.287048
v -1.296488 1.009521 -4.289124
v -1.200118 1.163720 -4.214931
v -1.182838 1.150399 -4.259427
v -1.223874 1.141310 -3.773151
v -1.213747 1.126313 -3.731252
v -0.849779 0.766348 -4.229663
v -0.881644 0.806093 -4.307607
v -0.872042 0.740675 -3.777705
v -0.896751 0.759103 -3.712568
v -0.944330 0.798103 -3.653296
v -1.228741 1.073434 -3.641506
v -1.271051 1.121496 -3.694626
v -1.303701 1.161218 -3.775167
v -1.271286 1.179774 -4.251957
v -1.226978 1.145225 -4.330770
v -1.190209 1.111173 -4.362606
v -0.922326 0.850030 -4.360744
v -1.063102 0.919312 -3.647880
v -1.123664 0.844023 -3.639772
v -1.154739 0.818279 -3.730219
v -1.165047 0.810363 -3.826054
v -1.141718 0.839842 -4.288496
v -1.125620 0.863651 -4.372788
v -1.092445 0.902535 -4.429785
v -1.034400 0.969805 -4.361240
v -1.008116 0.998387 -4.274477
v -1.004206 0.995445 -4.222881
v -1.025828 0.967544 -3.760251
v -1.032854 0.962799 -3.711483
v -1.090597 0.949403 -3.646802
v -1.151932 0.875213 -3.638367
v -1.181734 0.848053 -3.729739
v -1.192266 0.840139 -3.826421
v -1.168881 0.869625 -4.288739
v -1.151759 0.892483 -4.373062
v -1.118740 0.931569 -4.430000
v -1.060297 0.998343 -4.361460
v -1.033705 1.026645 -4.274677
v -1.031191 1.025387 -4.222987
v -1.052747 0.997541 -3.760620
v -1.058801 0.991458 -3.711388
vt 0.375000 0.000000
vt 0.380608 0.000000
vt 0.380608 0.025565
vt 0.375000 0.025565
vt 0.375000 0.492400
vt 0.380608 0.492400
vt 0.380608 0.500000
vt 0.375000 0.500000
vt 0.375000 0.724435
vt 0.380608 0.724435
vt 0.380608 0.750000
vt 0.375000 0.750000
vt 0.380608 0.757600
vt 0.375000 0.757600
vt 0.867400 0.000000
vt 0.875000 0.000000
vt 0.875000 0.025565
vt 0.867400 0.025565
vt 0.125000 0.000000
vt 0.132600 0.000000
vt 0.132600 0.025565
vt 0.125000 0.025565
vt 0.616099 0.000000
vt 0.616099 0.025565
vt 0.616099 0.492400
vt 0.616099 0.500000
vt 0.616099 0.724435
vt 0.616099 0.750000
vt 0.616099 0.757600
vt 0.369401 0.000000
vt 0.369401 0.025565
vt 0.375000 0.250000
vt 0.380608 0.250000
vt 0.380608 0.255599
vt 0.375000 0.255599
vt 0.616099 0.255599
vt 0.616099 0.250000
vt 0.625000 0.000000
vt 0.630599 0.000000
vt 0.630599 0.025565
vt 0.625000 0.025565
vt 0.380608 1.000000
vt 0.380608 0.994401
vt 0.616099 0.994401
vt 0.616099 1.000000
vt 0.375000 0.994401
vt 0.375000 1.000000
vt 0.625000 0.750000
vt 0.625000 0.757600
vt 0.625000 0.994401
vt 0.625000 1.000000
vt 0.625000 0.255599
vt 0.625000 0.250000
vt 0.625000 0.492400
vt 0.625000 0.500000
vt 0.625000 0.724435
vt 0.369401 0.233184
vt 0.375000 0.233184
vt 0.369401 0.250000
vt 0.132600 0.233184
vt 0.132600 0.250000
vt 0.125000 0.233184
vt 0.125000 0.250000
vt 0.380608 0.516816
vt 0.375000 0.516816
vt 0.616099 0.516816
vt 0.625000 0.516816
vt 0.867400 0.233184
vt 0.875000 0.233184
vt 0.875000 0.250000
vt 0.867400 0.250000
vt 0.630599 0.233184
vt 0.630599 0.250000
vt 0.625000 0.233184
vt 0.616099 0.233184
vt 0.380608 0.233184
vt 0.481762 0.516816
vt 0.481762 0.724435
vt 0.481762 0.750000
vt 0.481762 0.757600
vt 0.481762 0.994401
vt 0.481762 0.000000
vt 0.481762 1.000000
vt 0.481762 0.025565
vt 0.481762 0.233184
vt 0.481762 0.250000
vt 0.481762 0.255599
vt 0.481762 0.492400
vt 0.481762 0.500000
vt 0.504210 0.516816
vt 0.504210 0.724435
vt 0.504210 0.750000
vt 0.504210 0.757600
vt 0.504210 0.994401
vt 0.504210 0.000000
vt 0.504210 1.000000
vt 0.504210 0.025565
vt 0.504210 0.233184
vt 0.504210 0.250000
vt 0.504210 0.255599
vt 0.504210 0.492400
vt 0.504210 0.500000
vn -0.197487 -0.776142 -0.598834
vn -0.415739 -0.648726 -0.637430
vn 0.242258 -0.042160 -0.969295
vn 0.600583 -0.294908 -0.743189
vn 0.760293 0.645232 0.075031
vn 0.749918 0.656567 0.080887
vn 0.738071 0.654739 0.162999
vn 0.750781 0.646798 0.134088
vn 0.142550 -0.741963 0.655111
vn -0.127197 -0.505398 0.853460
vn -0.534092 -0.758233 0.373937
vn -0.383734 -0.857151 0.343569
vn -0.552506 -0.831013 0.064455
vn -0.611197 -0.783949 0.108918
vn -0.593861 -0.803086 -0.048801
vn -0.515686 -0.854763 -0.058727
vn -0.973370 -0.226547 -0.035038
vn -0.939861 -0.277007 0.199820
vn -0.756121 0.423099 0.499267
vn -0.822263 0.567471 0.043131
vn -0.179143 -0.974093 0.138022
vn -0.165579 -0.985295 -0.042148
vn 0.622102 -0.782155 0.034960
vn 0.546610 -0.740731 0.390558
vn -0.514497 -0.563701 -0.646169
vn 0.083439 0.048382 -0.995338
vn 0.746625 0.660129 0.082346
vn 0.736073 0.656221 0.166043
vn -0.332837 -0.412651 0.847903
vn -0.610138 -0.690622 0.388296
vn -0.647200 -0.752448 0.122284
vn -0.649264 -0.759184 -0.045788
vn -0.147456 -0.981425 -0.122727
vn -0.064250 -0.917624 -0.392222
vn 0.638259 -0.562026 -0.526072
vn 0.540455 -0.832470 -0.122072
vn 0.751182 0.660088 0.003173
vn 0.752888 0.657846 -0.019974
vn 0.750930 0.657113 0.065620
vn 0.760379 0.645572 0.071137
vn 0.748031 0.660549 0.064223
vn 0.750693 0.660328 -0.020678
vn -0.908623 -0.150066 -0.389724
vn -0.970682 -0.209045 -0.118644
vn -0.850874 0.502886 -0.152048
vn -0.568232 0.605255 -0.557475
vn -0.592670 -0.748694 -0.296982
vn -0.592870 -0.797757 -0.109949
vn -0.646828 -0.753763 -0.115999
vn -0.628271 -0.714903 -0.306904
vn -0.510862 -0.855119 -0.088270
vn -0.509470 -0.821132 -0.257260
vn -0.768839 -0.637762 -0.046337
vn -0.749189 -0.651741 0.118110
vn -0.809530 -0.580624 0.086822
vn -0.836308 -0.545477 -0.055175
vn -0.764559 -0.635255 -0.109096
vn -0.835034 -0.542619 -0.091009
vn -0.715867 -0.632747 -0.295237
vn -0.786249 -0.563832 -0.252798
vn -0.212346 0.485287 -0.848178
vn -0.009255 0.169448 -0.985496
vn -0.584560 -0.495644 -0.642360
vn -0.696653 -0.352936 -0.624589
vn 0.633704 0.770420 0.069798
vn 0.636476 0.768531 0.065255
vn 0.634035 0.773043 -0.020115
vn 0.652683 0.757627 -0.002412
vn 0.632903 0.770510 0.075818
vn 0.636082 0.767199 0.082498
vn 0.631640 0.756161 0.171031
vn 0.630157 0.761649 0.150974
vn -0.716884 -0.593264 0.366217
vn -0.462480 -0.241246 0.853178
vn -0.731542 0.051253 0.679867
vn -0.826173 -0.446003 0.344266
vn 0.985037 -0.169923 -0.028791
vn 0.911322 -0.070231 -0.405660
vn 0.937084 0.263316 -0.229215
vn 0.976673 0.213545 0.022537
vn 0.984808 -0.145117 0.095366
vn 0.975632 0.200139 0.089929
vn 0.877289 -0.259205 0.403951
vn 0.939667 0.160256 0.302231
vn 0.815882 0.268087 0.512314
vn 0.651671 0.470176 0.595197
vn 0.441606 0.124035 0.888594
vn 0.686701 -0.205041 0.697424
vn 0.584218 0.527824 0.616515
vn 0.351644 0.296233 0.888027
vn -0.160839 0.660036 0.733814
vn 0.179543 0.418072 0.890494
vn 0.479962 0.658291 0.579905
vn 0.300790 0.798843 0.520937
vn -0.165513 0.979562 0.114300
vn -0.267964 0.820755 0.504536
vn 0.188292 0.919471 0.345137
vn 0.214434 0.971818 0.097915
vn -0.194468 0.979933 -0.043735
vn 0.226069 0.973707 0.028044
vn -0.060447 0.904066 -0.423097
vn 0.291220 0.931881 -0.216305
vn 0.567833 0.732625 -0.375268
vn 0.452636 0.638621 -0.622321
vn 0.261249 0.794528 -0.548156
vn 0.463092 0.816965 -0.343677
vn 0.666207 0.419881 -0.616334
vn 0.580716 0.541076 -0.608280
vn 0.684599 0.617597 -0.387166
vn 0.737819 0.561618 -0.374443
vn 0.840990 0.160544 -0.516684
vn 0.852125 0.394934 -0.343381
vn -0.395643 -0.401246 0.826117
vn 0.329764 0.324889 0.886399
vn -0.669837 -0.639507 0.377291
vn -0.734834 -0.666383 0.126303
vn -0.740023 -0.671247 -0.042335
vn -0.735030 -0.668387 -0.113975
vn -0.699635 -0.645710 -0.305891
vn -0.549089 -0.527964 -0.647885
vn 0.031688 0.052068 -0.998141
vn 0.536777 0.580324 -0.612449
vn 0.612292 0.688840 -0.388069
vn 0.656936 0.751134 0.065059
vn 0.652526 0.757474 -0.021061
vn 0.657075 0.749152 0.083808
vn 0.650385 0.739708 0.172715
vn 0.542787 0.588964 0.598752
s 1
g pasted__polySurface1 pasted__group4_pasted__group2_pasted__pasted__pCube4 group7
usemtl initialShadingGroup
f 1/1/1 2/2/2 3/3/3 4/4/4
s 2
f 5/5/5 6/6/6 7/7/7 8/8/8
s 3
f 9/9/9 10/10/10 11/11/11 12/12/12
s 4
f 12/12/13 11/11/14 13/13/15 14/14/16
s 5
f 15/15/17 16/16/18 17/17/19 18/18/20
s 6
f 12/19/21 14/20/22 19/21/23 9/22/24
s 1
f 2/2/2 62/82/25 63/84/26 3/3/3
s 2
f 7/7/7 6/6/6 67/88/27 68/89/28
s 3
f 11/11/11 10/10/10 58/78/29 59/79/30
s 4
f 13/13/15 11/11/14 59/79/31 60/80/32
s 6
f 27/30/33 1/1/34 4/4/35 28/31/36
s 2
f 29/32/37 30/33/38 31/34/39 32/35/40
f 66/87/41 31/34/39 30/33/38 65/86/42
s 5
f 35/38/43 36/39/44 37/40/45 38/41/46
s 4
f 2/42/47 39/43/48 61/81/49 62/83/50
f 27/46/51 39/43/48 2/42/47 1/47/52
s 6
f 14/20/22 27/30/33 28/31/36 19/21/23
s 2
f 32/35/40 31/34/39 6/6/6 5/5/5
f 67/88/27 6/6/6 31/34/39 66/87/41
s 5
f 36/39/44 15/15/17 18/18/20 37/40/45
s 4
f 39/43/48 13/13/15 60/80/32 61/81/49
f 14/14/16 13/13/15 39/43/48 27/46/51
f 26/29/53 25/28/54 16/48/55 15/49/56
f 40/44/57 26/29/53 15/49/56 36/50/58
f 20/45/59 40/44/57 36/50/58 35/51/60
s 1
f 38/41/61 21/24/62 20/23/63 35/38/64
s 2
f 41/52/65 33/36/66 34/37/67 42/53/68
f 43/54/69 22/25/70 33/36/66 41/52/65
f 23/26/71 22/25/70 43/54/69 44/55/72
s 3
f 25/28/73 24/27/74 17/56/75 16/48/76
s 6
f 45/57/77 46/58/78 29/32/79 32/59/80
f 47/60/81 45/57/77 32/59/80 5/61/82
f 48/62/83 47/60/81 5/61/82 8/63/84
s 3
f 8/8/85 7/7/86 49/64/87 48/65/88
f 68/89/89 57/77/90 49/64/87 7/7/86
f 51/67/91 50/66/92 23/26/93 44/55/94
s 5
f 52/68/95 51/69/96 44/70/97 43/71/98
f 53/72/99 52/68/95 43/71/98 41/73/100
f 54/74/101 53/72/99 41/73/100 42/53/102
s 1
f 34/37/103 55/75/104 54/74/105 42/53/106
f 56/76/107 64/85/108 65/86/109 30/33/110
f 46/58/111 56/76/107 30/33/110 29/32/112
f 3/3/3 63/84/26 64/85/108 56/76/107
f 4/4/4 3/3/3 56/76/107 46/58/111
s 6
f 28/31/36 4/4/35 46/58/78 45/57/77
f 19/21/23 28/31/36 45/57/77 47/60/81
f 9/22/24 19/21/23 47/60/81 48/62/83
s 3
f 48/65/88 49/64/87 10/10/10 9/9/9
f 58/78/29 10/10/10 49/64/87 57/77/90
f 17/56/75 24/27/74 50/66/92 51/67/91
s 5
f 18/18/20 17/17/19 51/69/96 52/68/95
f 37/40/45 18/18/20 52/68/95 53/72/99
f 38/41/46 37/40/45 53/72/99 54/74/101
s 1
f 55/75/104 21/24/62 38/41/61 54/74/105
s 3
f 70/91/113 58/78/29 57/77/90 69/90/114
f 59/79/30 58/78/29 70/91/113 71/92/115
s 4
f 60/80/32 59/79/31 71/92/116 72/93/117
f 61/81/49 60/80/32 72/93/117 73/94/118
f 62/83/50 61/81/49 73/94/118 74/96/119
s 1
f 63/84/26 62/82/25 74/95/120 75/97/121
f 64/85/108 63/84/26 75/97/121 76/98/122
f 65/86/109 64/85/108 76/98/122 77/99/123
s 2
f 78/100/124 66/87/41 65/86/42 77/99/125
f 79/101/126 67/88/27 66/87/41 78/100/124
f 68/89/28 67/88/27 79/101/126 80/102/127
s 3
f 80/102/128 69/90/114 57/77/90 68/89/89
f 24/27/74 70/91/113 69/90/114 50/66/92
f 71/92/115 70/91/113 24/27/74 25/28/73
s 4
f 72/93/117 71/92/116 25/28/54 26/29/53
f 73/94/118 72/93/117 26/29/53 40/44/57
f 74/96/119 73/94/118 40/44/57 20/45/59
s 1
f 75/97/121 74/95/120 20/23/63 21/24/62
f 76/98/122 75/97/121 21/24/62 55/75/104
f 77/99/123 76/98/122 55/75/104 34/37/103
s 2
f 33/36/66 78/100/124 77/99/125 34/37/67
f 22/25/70 79/101/126 78/100/124 33/36/66
f 80/102/127 79/101/126 22/25/70 23/26/71
s 3
f 50/66/92 69/90/114 80/102/128 23/26/93
