# This file uses centimeters as units for non-parametric coordinates.

mtllib Cenicero.mtl
g default
v -0.621132 0.513734 -1.578760
v -0.744051 0.513734 -1.606815
v -0.842625 0.513734 -1.528205
v -0.842625 0.513734 -1.402125
v -0.744051 0.513734 -1.323515
v -0.621132 0.513734 -1.351570
v -0.566428 0.513734 -1.465165
v -0.621132 0.612720 -1.578760
v -0.744051 0.612720 -1.606815
v -0.842625 0.612720 -1.528205
v -0.842625 0.612720 -1.402125
v -0.744051 0.612720 -1.323515
v -0.621132 0.612720 -1.351570
v -0.566428 0.612720 -1.465165
v -0.711721 0.513734 -1.465165
v -0.711721 0.530657 -1.465165
v -0.682260 0.603277 -1.585874
v -0.682592 0.612720 -1.592787
v -0.733287 0.603277 -1.568019
v -0.644034 0.603277 -1.547647
v -0.787008 0.603277 -1.561966
v -0.793338 0.612720 -1.567510
v -0.804863 0.603277 -1.510939
v -0.833625 0.603277 -1.465165
v -0.842625 0.612720 -1.465165
v -0.804863 0.603277 -1.419391
v -0.787008 0.603277 -1.368364
v -0.793338 0.612720 -1.362820
v -0.733287 0.603277 -1.362311
v -0.682260 0.603277 -1.344456
v -0.682592 0.612720 -1.337543
v -0.644034 0.603277 -1.382682
v -0.598260 0.603277 -1.411444
v -0.593780 0.612720 -1.408368
v -0.604312 0.603277 -1.465165
v -0.598260 0.603277 -1.518885
v -0.593780 0.612720 -1.521962
v -0.701224 0.530657 -1.511152
v -0.719803 0.530657 -1.500577
v -0.689073 0.530657 -1.493564
v -0.663147 0.603277 -1.566761
v -0.707774 0.603277 -1.576946
v -0.741130 0.530657 -1.502043
v -0.744447 0.530657 -1.480925
v -0.760147 0.603277 -1.564992
v -0.795935 0.603277 -1.536453
v -0.758890 0.530657 -1.465165
v -0.744447 0.530657 -1.449405
v -0.819244 0.603277 -1.488052
v -0.819244 0.603277 -1.442278
v -0.741130 0.530657 -1.428287
v -0.719803 0.530657 -1.429752
v -0.795935 0.603277 -1.393877
v -0.760148 0.603277 -1.365337
v -0.701224 0.530657 -1.419178
v -0.689073 0.530657 -1.436766
v -0.707774 0.603277 -1.353383
v -0.663147 0.603277 -1.363569
v -0.669223 0.530657 -1.444699
v -0.675397 0.530657 -1.465165
v -0.621147 0.603277 -1.397063
v -0.601286 0.603277 -1.438305
v -0.669223 0.530657 -1.485631
v -0.601286 0.603277 -1.492025
v -0.621147 0.603277 -1.533266
vt 0.597420 0.034089
vt 0.465231 0.003918
vt 0.359224 0.088456
vt 0.359224 0.224044
vt 0.465231 0.308582
vt 0.597420 0.278411
vt 0.656250 0.156250
vt 0.375000 0.312500
vt 0.410714 0.312500
vt 0.446429 0.312500
vt 0.482143 0.312500
vt 0.517857 0.312500
vt 0.553571 0.312500
vt 0.589286 0.312500
vt 0.625000 0.312500
vt 0.375000 0.688440
vt 0.410714 0.688440
vt 0.446429 0.688440
vt 0.482143 0.688440
vt 0.517857 0.688440
vt 0.553571 0.688440
vt 0.589286 0.688440
vt 0.625000 0.688440
vt 0.597420 0.721589
vt 0.465231 0.691418
vt 0.359224 0.775956
vt 0.359224 0.911544
vt 0.465231 0.996082
vt 0.597420 0.965911
vt 0.656250 0.843750
vt 0.500000 0.150000
vt 0.500000 0.837500
vt 0.520402 0.930959
vt 0.531326 0.980997
vt 0.392857 0.688440
vt 0.482616 0.916791
vt 0.548710 0.901706
vt 0.442834 0.913255
vt 0.412227 0.953813
vt 0.428571 0.688440
vt 0.429612 0.874522
vt 0.408313 0.841571
vt 0.359224 0.843750
vt 0.464286 0.688440
vt 0.429612 0.806728
vt 0.442834 0.769887
vt 0.412227 0.733687
vt 0.500000 0.688440
vt 0.482616 0.764459
vt 0.520402 0.752182
vt 0.531326 0.706503
vt 0.535714 0.688440
vt 0.548710 0.779544
vt 0.582607 0.801789
vt 0.626835 0.782669
vt 0.571429 0.688440
vt 0.578125 0.840625
vt 0.582607 0.881352
vt 0.626835 0.904831
vt 0.607143 0.688440
vt 0.511288 0.889207
vt 0.491308 0.877146
vt 0.524355 0.869603
vt 0.534556 0.916332
vt 0.501509 0.923875
vt 0.468373 0.879412
vt 0.464806 0.856011
vt 0.462725 0.915023
vt 0.436223 0.893888
vt 0.449274 0.839752
vt 0.464806 0.822114
vt 0.418962 0.858046
vt 0.418962 0.824149
vt 0.468373 0.800093
vt 0.491308 0.800979
vt 0.436223 0.788307
vt 0.462725 0.767173
vt 0.511288 0.790297
vt 0.524355 0.808522
vt 0.501509 0.758320
vt 0.534556 0.765863
vt 0.545703 0.817743
vt 0.539063 0.839062
vt 0.565659 0.790667
vt 0.580366 0.821207
vt 0.545703 0.861761
vt 0.580366 0.860989
vt 0.565659 0.891529
vn 0.222521 0.000000 -0.974928
vn 0.222521 0.000000 -0.974928
vn 0.222521 0.000000 -0.974928
vn 0.222521 0.000000 -0.974928
vn 0.222521 0.000000 -0.974928
vn -0.623490 0.000000 -0.781832
vn -0.623490 0.000000 -0.781832
vn -0.623490 0.000000 -0.781832
vn -0.623490 0.000000 -0.781832
vn -0.623490 0.000000 -0.781832
vn -1.000000 0.000000 -0.000000
vn -1.000000 0.000000 -0.000000
vn -1.000000 0.000000 -0.000000
vn -1.000000 0.000000 -0.000000
vn -1.000000 0.000000 -0.000000
vn -0.623490 0.000000 0.781832
vn -0.623490 0.000000 0.781832
vn -0.623490 0.000000 0.781832
vn -0.623490 0.000000 0.781832
vn -0.623490 0.000000 0.781832
vn 0.222521 -0.000000 0.974928
vn 0.222521 -0.000000 0.974928
vn 0.222521 -0.000000 0.974928
vn 0.222521 -0.000000 0.974928
vn 0.222521 -0.000000 0.974928
vn 0.900969 0.000000 0.433884
vn 0.900969 0.000000 0.433884
vn 0.900969 0.000000 0.433884
vn 0.900969 0.000000 0.433884
vn 0.900969 0.000000 0.433884
vn 0.900969 0.000000 -0.433884
vn 0.900969 0.000000 -0.433884
vn 0.900969 0.000000 -0.433884
vn 0.900969 0.000000 -0.433884
vn 0.900969 0.000000 -0.433884
vn 0.000000 -1.000000 0.000000
vn 0.000000 -1.000000 -0.000000
vn 0.000000 -1.000000 0.000000
vn 0.000000 -1.000000 0.000000
vn 0.000000 -1.000000 -0.000000
vn 0.000000 -1.000000 -0.000000
vn 0.000000 -1.000000 0.000000
vn 0.000000 -1.000000 0.000000
vn -0.245665 0.920139 0.304947
vn -0.242057 0.920245 0.307502
vn -0.182577 0.919429 0.348304
vn -0.182577 0.919429 0.348304
vn -0.182577 0.919429 0.348304
vn 0.079930 0.929509 0.360033
vn 0.084719 0.929642 0.358593
vn 0.148984 0.929154 0.338343
vn 0.148984 0.929154 0.338343
vn 0.148984 0.929154 0.338343
vn 0.316810 0.935974 0.153570
vn 0.317650 0.935997 0.151688
vn 0.343913 0.934591 0.090903
vn 0.343913 0.934591 0.090903
vn 0.343913 0.934591 0.090903
vn 0.316810 0.935974 -0.153570
vn 0.317650 0.935997 -0.151688
vn 0.288680 0.933072 -0.214571
vn 0.288680 0.933072 -0.214571
vn 0.288680 0.933072 -0.214571
vn 0.079930 0.929509 -0.360033
vn 0.084719 0.929642 -0.358593
vn 0.012901 0.925236 -0.379174
vn 0.012901 0.925236 -0.379174
vn 0.012901 0.925236 -0.379174
vn -0.245665 0.920139 -0.304947
vn -0.242057 0.920245 -0.307502
vn -0.305539 0.915670 -0.261141
vn -0.305539 0.915670 -0.261141
vn -0.305539 0.915670 -0.261141
vn -0.402484 0.915427 -0.000000
vn -0.402484 0.915427 -0.000000
vn -0.401279 0.912685 0.077336
vn -0.401279 0.912685 0.077336
vn -0.401279 0.912685 0.077336
vn 0.012901 0.925236 0.379174
vn 0.012901 0.925236 0.379174
vn 0.012901 0.925236 0.379174
vn 0.301443 0.666800 0.681550
vn 0.165624 0.675629 0.718397
vn 0.162188 0.675678 0.719135
vn 0.301443 0.666800 0.681550
vn 0.288681 0.933072 0.214571
vn 0.288680 0.933072 0.214571
vn 0.288680 0.933072 0.214571
vn 0.726117 0.660609 0.190657
vn 0.670455 0.668405 0.322063
vn 0.669757 0.668415 0.323492
vn 0.726117 0.660609 0.190657
vn 0.343913 0.934591 -0.090903
vn 0.343913 0.934591 -0.090903
vn 0.343913 0.934591 -0.090903
vn 0.600489 0.662445 -0.447860
vn 0.670455 0.668405 -0.322063
vn 0.669757 0.668415 -0.323492
vn 0.600489 0.662445 -0.447860
vn 0.148984 0.929154 -0.338343
vn 0.148984 0.929154 -0.338343
vn 0.148984 0.929154 -0.338343
vn 0.024006 0.670820 -0.741232
vn 0.165624 0.675629 -0.718397
vn 0.162188 0.675678 -0.719135
vn 0.024006 0.670820 -0.741232
vn -0.182577 0.919429 -0.348304
vn -0.182577 0.919429 -0.348304
vn -0.182577 0.919429 -0.348304
vn -0.558716 0.679198 -0.475948
vn -0.453599 0.684403 -0.570824
vn -0.455739 0.684433 -0.569082
vn -0.558716 0.679198 -0.475948
vn -0.401279 0.912685 -0.077336
vn -0.401279 0.912685 -0.077336
vn -0.401279 0.912685 -0.077336
vn -0.718386 0.681479 0.139669
vn -0.725498 0.688225 0.000000
vn -0.725497 0.688225 0.000000
vn -0.718386 0.681479 0.139669
vn -0.305540 0.915670 0.261141
vn -0.305540 0.915670 0.261141
vn -0.305540 0.915670 0.261141
vn -0.341020 0.676078 0.653164
vn -0.453600 0.684403 0.570824
vn -0.455739 0.684433 0.569082
vn -0.341020 0.676078 0.653164
vn 0.000000 1.000000 0.000000
vn -0.000000 1.000000 0.000000
vn 0.000000 1.000000 0.000000
vn 0.000000 1.000000 0.000000
vn -0.558716 0.679198 0.475948
vn -0.558716 0.679198 0.475948
vn -0.152602 0.727801 0.668594
vn -0.152602 0.727801 0.668594
vn -0.152602 0.727801 0.668594
vn -0.152602 0.727801 0.668594
vn -0.000000 1.000000 0.000000
vn 0.000000 1.000000 0.000000
vn 0.024005 0.670820 0.741232
vn 0.024005 0.670820 0.741232
vn 0.432357 0.720507 0.542159
vn 0.432358 0.720507 0.542159
vn 0.432358 0.720507 0.542159
vn 0.432358 0.720507 0.542159
vn -0.000000 1.000000 0.000000
vn -0.000000 1.000000 0.000000
vn 0.600489 0.662445 0.447860
vn 0.600489 0.662446 0.447860
vn 0.696886 0.717182 0.000000
vn 0.696886 0.717182 0.000000
vn 0.696886 0.717182 0.000000
vn 0.696886 0.717182 0.000000
vn -0.000000 1.000000 -0.000000
vn -0.000000 1.000000 0.000000
vn 0.726117 0.660609 -0.190657
vn 0.726117 0.660609 -0.190657
vn 0.432358 0.720507 -0.542159
vn 0.432358 0.720507 -0.542159
vn 0.432358 0.720507 -0.542159
vn 0.432358 0.720507 -0.542159
vn 0.000000 1.000000 -0.000000
vn 0.000000 1.000000 -0.000000
vn 0.301443 0.666800 -0.681549
vn 0.301443 0.666800 -0.681549
vn -0.152602 0.727801 -0.668594
vn -0.152602 0.727801 -0.668594
vn -0.152602 0.727801 -0.668594
vn -0.152602 0.727801 -0.668594
vn 0.000000 1.000000 0.000000
vn 0.000000 1.000000 0.000000
vn -0.341020 0.676078 -0.653164
vn -0.341019 0.676078 -0.653164
vn -0.612401 0.733478 -0.294917
vn -0.612401 0.733478 -0.294917
vn -0.612401 0.733477 -0.294917
vn -0.612401 0.733478 -0.294917
vn 0.000000 1.000000 0.000000
vn -0.718386 0.681479 -0.139669
vn -0.718386 0.681479 -0.139669
vn -0.612401 0.733478 0.294916
vn -0.612401 0.733478 0.294916
vn -0.612401 0.733478 0.294916
vn -0.612401 0.733478 0.294916
s off
g pCylinder5
usemtl initialShadingGroup
f 1/8/1 2/9/2 9/17/3 18/35/4 8/16/5
f 2/9/6 3/10/7 10/18/8 22/40/9 9/17/10
f 3/10/11 4/11/12 11/19/13 25/44/14 10/18/15
f 4/11/16 5/12/17 12/20/18 28/48/19 11/19/20
f 5/12/21 6/13/22 13/21/23 31/52/24 12/20/25
f 6/13/26 7/14/27 14/22/28 34/56/29 13/21/30
f 7/14/31 1/15/32 8/23/33 37/60/34 14/22/35
s 1
f 2/2/36 1/1/37 15/31/38
f 3/3/39 2/2/36 15/31/38
f 4/4/40 3/3/39 15/31/38
f 5/5/41 4/4/40 15/31/38
f 6/6/42 5/5/41 15/31/38
f 7/7/43 6/6/42 15/31/38
f 1/1/37 7/7/43 15/31/38
s 2
f 20/37/44 8/29/45 18/34/46 17/33/47 41/64/48
s 3
f 19/36/49 9/28/50 22/39/51 21/38/52 45/68/53
s 4
f 23/41/54 10/27/55 25/43/56 24/42/57 49/72/58
s 5
f 26/45/59 11/26/60 28/47/61 27/46/62 53/76/63
s 6
f 29/49/64 12/25/65 31/51/66 30/50/67 57/80/68
s 7
f 32/53/69 13/24/70 34/55/71 33/54/72 61/84/73
s 8
f 35/57/74 14/30/75 37/59/76 36/58/77 64/87/78
s 3
f 18/34/79 9/28/50 19/36/49 42/65/80 17/33/81
s 9
f 42/65/82 19/36/83 39/62/84 38/61/85
s 4
f 22/39/86 10/27/55 23/41/54 46/69/87 21/38/88
s 10
f 46/69/89 23/41/90 44/67/91 43/66/92
s 5
f 25/43/93 11/26/60 26/45/59 50/73/94 24/42/95
s 11
f 50/73/96 26/45/97 48/71/98 47/70/99
s 6
f 28/47/100 12/25/65 29/49/64 54/77/101 27/46/102
s 12
f 54/77/103 29/49/104 52/75/105 51/74/106
s 7
f 31/51/107 13/24/70 32/53/69 58/81/108 30/50/109
s 13
f 58/81/110 32/53/111 56/79/112 55/78/113
s 8
f 34/55/114 14/30/75 35/57/74 62/85/115 33/54/116
s 14
f 62/85/117 35/57/118 60/83/119 59/82/120
s 2
f 37/59/121 8/29/45 20/37/44 65/88/122 36/58/123
s 15
f 65/88/124 20/37/125 40/63/126 63/86/127
s 16
f 39/62/128 16/32/129 40/63/130 38/61/131
s 15
f 40/63/126 20/37/125 41/64/132 38/61/133
s off
f 41/64/134 17/33/135 42/65/136 38/61/137
s 16
f 44/67/138 16/32/129 39/62/128 43/66/139
s 9
f 39/62/84 19/36/83 45/68/140 43/66/141
s off
f 45/68/142 21/38/143 46/69/144 43/66/145
s 16
f 48/71/146 16/32/129 44/67/138 47/70/147
s 10
f 44/67/91 23/41/90 49/72/148 47/70/149
s off
f 49/72/150 24/42/151 50/73/152 47/70/153
s 16
f 52/75/154 16/32/129 48/71/146 51/74/155
s 11
f 48/71/98 26/45/97 53/76/156 51/74/157
s off
f 53/76/158 27/46/159 54/77/160 51/74/161
s 16
f 56/79/162 16/32/129 52/75/154 55/78/163
s 12
f 52/75/105 29/49/104 57/80/164 55/78/165
s off
f 57/80/166 30/50/167 58/81/168 55/78/169
s 16
f 60/83/170 16/32/129 56/79/162 59/82/171
s 13
f 56/79/112 32/53/111 61/84/172 59/82/173
s off
f 61/84/174 33/54/175 62/85/176 59/82/177
s 16
f 40/63/130 16/32/129 60/83/170 63/86/178
s 14
f 60/83/119 35/57/118 64/87/179 63/86/180
s off
f 64/87/181 36/58/182 65/88/183 63/86/184
