# This file uses centimeters as units for non-parametric coordinates.

mtllib Cigarrete.mtl
g default
v 0.002144 -0.024374 -0.003713
v -0.002144 -0.024374 -0.003713
v -0.004288 -0.024374 -0.000000
v -0.002144 -0.024374 0.003713
v 0.002144 -0.024374 0.003713
v 0.004288 -0.024374 0.000000
v 0.002144 0.024374 -0.003713
v -0.002144 0.024374 -0.003713
v -0.004288 0.024374 -0.000000
v -0.002144 0.024374 0.003713
v 0.002144 0.024374 0.003713
v 0.004288 0.024374 0.000000
v -0.000000 -0.024374 -0.000000
v 0.000000 0.024374 -0.000000
v 0.004288 -0.008687 0.000000
v 0.002144 -0.008687 0.003713
v -0.002144 -0.008687 0.003713
v -0.004288 -0.008687 -0.000000
v -0.002144 -0.008687 -0.003713
v 0.002144 -0.008687 -0.003713
v 0.002086 0.005622 -0.001859
v -0.000058 0.005622 0.001854
v -0.004346 0.005622 0.001854
v -0.006490 0.005622 -0.001859
v -0.004346 0.005622 -0.005573
v -0.000058 0.005622 -0.005573
vt 0.578125 0.020934
vt 0.421875 0.020934
vt 0.343750 0.156250
vt 0.421875 0.291566
vt 0.578125 0.291566
vt 0.656250 0.156250
vt 0.375000 0.312500
vt 0.416667 0.312500
vt 0.458333 0.312500
vt 0.500000 0.312500
vt 0.541667 0.312500
vt 0.583333 0.312500
vt 0.625000 0.312500
vt 0.375000 0.688440
vt 0.416667 0.688440
vt 0.458333 0.688440
vt 0.500000 0.688440
vt 0.541667 0.688440
vt 0.583333 0.688440
vt 0.625000 0.688440
vt 0.578125 0.708434
vt 0.421875 0.708434
vt 0.343750 0.843750
vt 0.421875 0.979066
vt 0.578125 0.979066
vt 0.656250 0.843750
vt 0.500000 0.150000
vt 0.500000 0.837500
vt 0.583333 0.433478
vt 0.541667 0.433478
vt 0.500000 0.433478
vt 0.458333 0.433478
vt 0.416667 0.433478
vt 0.625000 0.433478
vt 0.375000 0.433478
vt 0.583333 0.543828
vt 0.541667 0.543828
vt 0.500000 0.543828
vt 0.458333 0.543828
vt 0.416667 0.543828
vt 0.625000 0.543828
vt 0.375000 0.543828
vn 0.000000 0.000000 -1.000000
vn 0.000000 0.000000 -1.000000
vn 0.000000 -0.064838 -0.997896
vn 0.000000 -0.058609 -0.998281
vn -0.866022 0.000000 -0.500005
vn -0.866022 0.000000 -0.500005
vn -0.862264 -0.093059 -0.497836
vn -0.862087 -0.095227 -0.497733
vn -0.866024 0.000000 0.500003
vn -0.866024 0.000000 0.500003
vn -0.865623 -0.030425 0.499771
vn -0.865509 -0.034486 0.499705
vn 0.000000 0.000000 1.000000
vn 0.000000 0.000000 1.000000
vn 0.000000 0.058609 0.998281
vn 0.000000 0.064838 0.997896
vn 0.866024 0.000000 0.500003
vn 0.866024 0.000000 0.500003
vn 0.862088 0.095227 0.497730
vn 0.862266 0.093059 0.497833
vn 0.866024 0.000000 -0.500003
vn 0.866024 0.000000 -0.500003
vn 0.865509 0.034486 -0.499705
vn 0.865623 0.030425 -0.499771
vn 0.000000 -1.000000 0.000000
vn 0.000000 -1.000000 0.000000
vn 0.000000 -1.000000 -0.000000
vn 0.000000 -1.000000 0.000000
vn 0.000000 -1.000000 0.000000
vn 0.000000 -1.000000 -0.000000
vn 0.000000 -1.000000 0.000000
vn 0.000000 1.000000 0.000000
vn 0.000000 1.000000 -0.000000
vn 0.000000 1.000000 -0.000000
vn 0.000000 1.000000 -0.000000
vn 0.000000 1.000000 0.000000
vn 0.000000 1.000000 0.000000
vn 0.000000 1.000000 0.000000
vn 0.866024 -0.000448 0.500003
vn 0.866024 0.000431 0.500003
vn 0.000000 0.001160 0.999999
vn 0.000000 -0.001372 0.999999
vn -0.866024 -0.000741 0.500002
vn -0.866024 0.000912 0.500002
vn -0.866022 -0.000431 -0.500005
vn -0.866022 0.000448 -0.500005
vn 0.000000 0.001372 -0.999999
vn 0.000000 -0.001160 -0.999999
vn 0.866024 -0.000912 -0.500002
vn 0.866024 0.000741 -0.500002
vn 0.856280 -0.149584 0.494377
vn 0.856280 -0.149584 0.494377
vn 0.000000 -0.098672 0.995120
vn 0.000000 -0.098672 0.995120
vn -0.864850 0.052059 0.499325
vn -0.864850 0.052059 0.499325
vn -0.856279 0.149584 -0.494380
vn -0.856279 0.149584 -0.494380
vn 0.000000 0.098672 -0.995120
vn 0.000000 0.098672 -0.995120
vn 0.864850 -0.052059 -0.499325
vn 0.864850 -0.052059 -0.499325
s 1
g pCylinder6
usemtl initialShadingGroup
f 1/7/1 2/8/2 19/33/3 20/35/4
s 2
f 2/8/5 3/9/6 18/32/7 19/33/8
s 3
f 3/9/9 4/10/10 17/31/11 18/32/12
s 4
f 4/10/13 5/11/14 16/30/15 17/31/16
s 5
f 5/11/17 6/12/18 15/29/19 16/30/20
s 6
f 6/12/21 1/13/22 20/34/23 15/29/24
s 7
f 2/2/25 1/1/26 13/27/27
f 3/3/28 2/2/25 13/27/27
f 4/4/29 3/3/28 13/27/27
f 5/5/30 4/4/29 13/27/27
f 6/6/31 5/5/30 13/27/27
f 1/1/26 6/6/31 13/27/27
s 8
f 7/25/32 8/24/33 14/28/34
f 8/24/33 9/23/35 14/28/34
f 9/23/35 10/22/36 14/28/34
f 10/22/36 11/21/37 14/28/34
f 11/21/37 12/26/38 14/28/34
f 12/26/38 7/25/32 14/28/34
s 5
f 16/30/20 15/29/19 21/36/39 22/37/40
s 4
f 17/31/16 16/30/15 22/37/41 23/38/42
s 3
f 18/32/12 17/31/11 23/38/43 24/39/44
s 2
f 19/33/8 18/32/7 24/39/45 25/40/46
s 1
f 20/35/4 19/33/3 25/40/47 26/42/48
s 6
f 15/29/24 20/34/23 26/41/49 21/36/50
s 5
f 22/37/40 21/36/39 12/19/51 11/18/52
s 4
f 23/38/42 22/37/41 11/18/53 10/17/54
s 3
f 24/39/44 23/38/43 10/17/55 9/16/56
s 2
f 25/40/46 24/39/45 9/16/57 8/15/58
s 1
f 26/42/48 25/40/47 8/15/59 7/14/60
s 6
f 21/36/50 26/41/49 7/20/61 12/19/62
